<svg xmlns="http://www.w3.org/2000/svg" viewBox="0 0 15 15"><defs><style>.cls-1{opacity:0.2;}.cls-2{fill:#fff;fill-rule:evenodd;}</style></defs><title>Ресурс 3</title><g id="Слой_2" data-name="Слой 2"><g id="Сайт"><g id="Фигура_16" data-name="Фигура 16" class="cls-1"><path class="cls-2" d="M11.15,3.9h-2L9,4.35a2.58,2.58,0,0,0-1.65-.61A3.18,3.18,0,0,0,5,4.87a4.15,4.15,0,0,0-1,2.9,4.16,4.16,0,0,0,.9,2.79A2.75,2.75,0,0,0,7,11.62a2.47,2.47,0,0,0,1.94-.94,2,2,0,0,0,1.79.9,3.81,3.81,0,0,0,3-1.5A5.42,5.42,0,0,0,15,6.47a6,6,0,0,0-2.07-4.57A7.35,7.35,0,0,0,7.78,0,7.72,7.72,0,0,0,2.28,2.15,7.07,7.07,0,0,0,0,7.51a7.29,7.29,0,0,0,2.16,5.28A7.81,7.81,0,0,0,8,15a11,11,0,0,0,4.34-.9.91.91,0,0,0,.5-1.18.93.93,0,0,0-1.22-.5A9.22,9.22,0,0,1,8,13.21a5.59,5.59,0,0,1-4.36-1.7,5.75,5.75,0,0,1-1.54-4A5.66,5.66,0,0,1,3.75,3.36,5.5,5.5,0,0,1,7.81,1.7a5.42,5.42,0,0,1,3.75,1.37,4.42,4.42,0,0,1,1.53,3.44,3.86,3.86,0,0,1-.7,2.36,1.9,1.9,0,0,1-1.45.94c-.27,0-.41-.14-.41-.43a8,8,0,0,1,.05-.83Zm-2.77,5a1.53,1.53,0,0,1-1.25.7.9.9,0,0,1-.8-.51A2.46,2.46,0,0,1,6,7.84a2.51,2.51,0,0,1,.43-1.52,1.27,1.27,0,0,1,1.06-.58,1.32,1.32,0,0,1,1,.43,1.58,1.58,0,0,1,.43,1.16A2.63,2.63,0,0,1,8.38,8.93Z"/></g></g></g></svg>