<svg xmlns="http://www.w3.org/2000/svg" viewBox="0 0 14 14"><defs><style>.cls-1{opacity:0.2;}.cls-2{fill:#fff;fill-rule:evenodd;}</style></defs><title>Ресурс 2</title><g id="Слой_2" data-name="Слой 2"><g id="Сайт"><g id="Фигура_15" data-name="Фигура 15" class="cls-1"><path class="cls-2" d="M13.62,10.56,10.76,8.87h0a.77.77,0,0,0-.4-.09A.91.91,0,0,0,9.72,9l-.84.86-.1.05-.1,0-.19,0A2.31,2.31,0,0,1,8,9.7a6.89,6.89,0,0,1-.87-.56A9.82,9.82,0,0,1,5.92,8.08,9.64,9.64,0,0,1,4.86,6.9,6.53,6.53,0,0,1,4.32,6,2.68,2.68,0,0,1,4,5.32a.37.37,0,0,1,0-.11.25.25,0,0,1,.05-.1l.73-.73a.92.92,0,0,0,.25-.47A.72.72,0,0,0,5,3.4L3.44.39A1,1,0,0,0,3.19.11.55.55,0,0,0,2.85,0a.65.65,0,0,0-.47.21l-2,2a1.11,1.11,0,0,0-.25.35A1.44,1.44,0,0,0,0,3s0,.12,0,.3A3.67,3.67,0,0,0,.06,4,7.62,7.62,0,0,0,.34,5.09,9.31,9.31,0,0,0,1,6.53a14,14,0,0,0,1.1,1.73,16.26,16.26,0,0,0,1.72,2,15.43,15.43,0,0,0,2.46,2.08,12.93,12.93,0,0,0,2.07,1.13,6.94,6.94,0,0,0,1.54.47,6.79,6.79,0,0,0,.91.1H11a1.44,1.44,0,0,0,.42-.13,1.11,1.11,0,0,0,.35-.25l2-2A.68.68,0,0,0,14,11,.74.74,0,0,0,13.62,10.56Z"/></g></g></g></svg>