<svg xmlns="http://www.w3.org/2000/svg" viewBox="0 0 11.99 16.01"><defs><style>.cls-1{opacity:0.2;}.cls-2{fill:#fff;fill-rule:evenodd;}</style></defs><title>Ресурс 1</title><g id="Слой_2" data-name="Слой 2"><g id="Сайт"><g id="Фигура_14" data-name="Фигура 14" class="cls-1"><path class="cls-2" d="M10.23,1.64A6.17,6.17,0,0,0,6,0,6.17,6.17,0,0,0,1.76,1.64a6.07,6.07,0,0,0-.56,7.88L6,16l4.8-6.48A6.07,6.07,0,0,0,10.23,1.64Zm-4.18,6a2.12,2.12,0,0,1-2.19-2,2.12,2.12,0,0,1,2.19-2,2.12,2.12,0,0,1,2.19,2A2.12,2.12,0,0,1,6.05,7.6Z"/></g></g></g></svg>